                  <svg width="32" height="32" viewBox="0 0 18 9" fill="none" xmlns="http://www.w3.org/2000/svg"><path d="M17.3141 5.65636C17.3756 5.76326 17.4155 5.88125 17.4315 6.00357C17.4474 6.12589 17.4391 6.25016 17.4071 6.36928C17.375 6.4884 17.3198 6.60004 17.2446 6.69782C17.1694 6.7956 17.0757 6.87761 16.9688 6.93917C16.8618 7.00073 16.7439 7.04063 16.6215 7.05659C16.4992 7.07255 16.3749 7.06426 16.2558 7.03219C16.1367 7.00013 16.0251 6.94492 15.9273 6.86971C15.8295 6.7945 15.7475 6.70076 15.6859 6.59386L14.3687 4.28917C13.6338 4.75155 12.8413 5.11558 12.0117 5.37198L12.425 7.84386C12.4657 8.08907 12.4073 8.34039 12.2627 8.54256C12.1181 8.74474 11.8991 8.88121 11.6539 8.92198C11.6023 8.93107 11.55 8.93552 11.4977 8.93527C11.2763 8.93504 11.0621 8.85648 10.8931 8.71349C10.7241 8.5705 10.6111 8.37231 10.5742 8.15402L10.1719 5.74777C9.39145 5.83422 8.60386 5.83422 7.82344 5.74777L7.425 8.15636C7.38806 8.37492 7.27487 8.57331 7.10553 8.71633C6.93619 8.85936 6.72166 8.93775 6.5 8.93761C6.44762 8.93786 6.39533 8.93341 6.34375 8.92433C6.22232 8.90388 6.10611 8.85971 6.00175 8.79434C5.89739 8.72897 5.80694 8.64368 5.73555 8.54334C5.66416 8.44301 5.61324 8.32959 5.58569 8.20957C5.55814 8.08955 5.55451 7.96528 5.575 7.84386L5.98828 5.36573C5.15867 5.10933 4.36624 4.7453 3.63125 4.28292L2.31406 6.59386C2.18974 6.80976 1.98475 6.96744 1.74417 7.03219C1.5036 7.09695 1.24715 7.06349 1.03125 6.93917C0.815347 6.81485 0.657673 6.60986 0.592915 6.36928C0.528156 6.12871 0.561617 5.87226 0.685937 5.65636L2.125 3.14464C1.63725 2.70417 1.18507 2.22586 0.772656 1.71417C0.627064 1.51999 0.562451 1.27691 0.592408 1.03607C0.622365 0.795221 0.744556 0.575379 0.933282 0.422779C1.12201 0.27018 1.36256 0.196716 1.60434 0.217841C1.84612 0.238965 2.07028 0.353031 2.22969 0.536047C3.48281 2.08761 5.675 3.93761 9 3.93761C12.325 3.93761 14.5172 2.08761 15.7703 0.536047C15.9271 0.344472 16.1534 0.222706 16.3996 0.197325C16.6459 0.171944 16.8922 0.245009 17.0848 0.400573C17.2774 0.556137 17.4007 0.78157 17.4277 1.02767C17.4547 1.27377 17.3832 1.52056 17.2289 1.71417C16.816 2.22592 16.3633 2.70423 15.875 3.14464L17.3141 5.65636Z" fill="currentColor"></path></svg>
